# xmcd CD database file
#
# Track frame offsets:
#	150
#	18410
#	38625
#	58125
#	81435
#	99503
#	120227
#	145940
#	172628
#	192461
#	225259
#
# Disc length: 3260 seconds
#
# Revision: 4
# Processed by: cddbd v1.5.2PL0 Copyright (c) Steve Scherf et al.
# Submitted via: CDex 1.74
#
DISCID=810cba0b
DTITLE=Various Artist - Vertical Momentum Trading My Sorrows [CD2]
DYEAR=2004
DGENRE=Worship
TTITLE0=Let The Praises Ring - Lincoln Brewster
TTITLE1=Friend Of God - Michael Gungor
TTITLE2=We Lift You Up - Jason Morant
TTITLE3=All The Earth Will Sing Your Praises - Paul Baloche
TTITLE4=Who You Are - Dave Lubben
TTITLE5=Search Me Know Me - Kathryn Scott
TTITLE6=Arise King Of Kings - Eoghan Heaslip
TTITLE7=To The Ends Of The Earth - United
TTITLE8=Rescue - Jared Anderson
TTITLE9=Great Is The Lord - Jason Morant
TTITLE10=Data Track
EXTD=YEAR: 2004
EXTT0=
EXTT1=
EXTT2=
EXTT3=
EXTT4=
EXTT5=
EXTT6=
EXTT7=
EXTT8=
EXTT9=
EXTT10=
PLAYORDER=
